<svg width="40" height="40" viewBox="0 0 40 40" fill="none" xmlns="http://www.w3.org/2000/svg">
<g clip-path="url(#clip0)">
<path d="M10.8323 2C11.219 2 11.5899 2.1317 11.8633 2.36612C12.1368 2.60054 12.2904 2.91848 12.2904 3.25V4.5H18.1227V3.25C18.1227 2.91848 18.2763 2.60054 18.5498 2.36612C18.8232 2.1317 19.1941 2 19.5808 2C19.9675 2 20.3384 2.1317 20.6118 2.36612C20.8852 2.60054 21.0389 2.91848 21.0389 3.25V4.5H26.8712V3.25C26.8712 2.91848 27.0248 2.60054 27.2982 2.36612C27.5717 2.1317 27.9425 2 28.3293 2C28.716 2 29.0868 2.1317 29.3603 2.36612C29.6337 2.60054 29.7873 2.91848 29.7873 3.25V4.5C30.9475 4.5 32.0601 4.89509 32.8804 5.59835C33.7007 6.30161 34.1616 7.25544 34.1616 8.25V14.59C32.6472 14.815 31.2515 15.4369 30.1664 16.37L26.2559 19.725C26.009 19.5769 25.7144 19.4982 25.4131 19.5H13.7485C13.3618 19.5 12.9909 19.6317 12.7175 19.8661C12.444 20.1005 12.2904 20.4185 12.2904 20.75C12.2904 21.0815 12.444 21.3995 12.7175 21.6339C12.9909 21.8683 13.3618 22 13.7485 22H23.6022L17.662 27.09C17.2974 27.4025 16.9621 27.7375 16.653 28.09C16.6076 27.7886 16.4357 27.5118 16.1695 27.3112C15.9033 27.1105 15.561 26.9999 15.2065 27H13.7485C13.3618 27 12.9909 27.1317 12.7175 27.3661C12.444 27.6005 12.2904 27.9185 12.2904 28.25C12.2904 28.5815 12.444 28.8995 12.7175 29.1339C12.9909 29.3683 13.3618 29.5 13.7485 29.5H15.2065C15.3621 29.5003 15.5167 29.4792 15.6644 29.4375C15.2741 30.0855 14.9727 30.7701 14.7662 31.4775L13.8826 34.505C13.6357 35.3338 13.7073 36.2088 14.0867 37H9.37424C8.21412 37 7.10151 36.6049 6.28118 35.9016C5.46086 35.1984 5 34.2446 5 33.25V8.25C5 7.25544 5.46086 6.30161 6.28118 5.59835C7.10151 4.89509 8.21412 4.5 9.37424 4.5V3.25C9.37424 2.91848 9.52785 2.60054 9.8013 2.36612C10.0747 2.1317 10.4456 2 10.8323 2ZM12.2904 13.25C12.2904 13.5815 12.444 13.8995 12.7175 14.1339C12.9909 14.3683 13.3618 14.5 13.7485 14.5H25.4131C25.7998 14.5 26.1707 14.3683 26.4441 14.1339C26.7176 13.8995 26.8712 13.5815 26.8712 13.25C26.8712 12.9185 26.7176 12.6005 26.4441 12.3661C26.1707 12.1317 25.7998 12 25.4131 12H13.7485C13.3618 12 12.9909 12.1317 12.7175 12.3661C12.444 12.6005 12.2904 12.9185 12.2904 13.25ZM32.2311 18.1375C33.0845 17.4058 34.2421 16.9948 35.4491 16.9948C36.656 16.9948 37.8136 17.4058 38.667 18.1375C39.5205 18.8692 40 19.8615 40 20.8963C40 21.931 39.5205 22.9233 38.667 23.655L26.1596 34.375C25.1221 35.2652 23.8218 35.8969 22.3978 36.2025L18.8663 36.96C18.5682 37.0241 18.2558 37.0208 17.9595 36.9505C17.6633 36.8803 17.3934 36.7454 17.176 36.5591C16.9587 36.3728 16.8014 36.1413 16.7194 35.8874C16.6374 35.6334 16.6336 35.3656 16.7084 35.11L17.5949 32.085C17.9507 30.8625 18.6855 29.7475 19.7237 28.86L32.2311 18.1375Z" fill="white"/>
</g>
<defs>
<clipPath id="clip0">
<rect width="40" height="40" fill="white"/>
</clipPath>
</defs>
</svg>
