<svg width="40" height="40" viewBox="0 0 40 40" fill="none" xmlns="http://www.w3.org/2000/svg">
<path d="M4.5 33.7188C4.5 34.589 4.89509 35.4236 5.59835 36.0389C6.30161 36.6543 7.25544 37 8.25 37H30.75C31.7446 37 32.6984 36.6543 33.4017 36.0389C34.1049 35.4236 34.5 34.589 34.5 33.7188V10.75H4.5V33.7188ZM25.75 16.2188C25.75 15.9287 25.8817 15.6505 26.1161 15.4454C26.3505 15.2402 26.6685 15.125 27 15.125C27.3315 15.125 27.6495 15.2402 27.8839 15.4454C28.1183 15.6505 28.25 15.9287 28.25 16.2188V31.5313C28.25 31.8213 28.1183 32.0995 27.8839 32.3047C27.6495 32.5098 27.3315 32.625 27 32.625C26.6685 32.625 26.3505 32.5098 26.1161 32.3047C25.8817 32.0995 25.75 31.8213 25.75 31.5313V16.2188ZM18.25 16.2188C18.25 15.9287 18.3817 15.6505 18.6161 15.4454C18.8505 15.2402 19.1685 15.125 19.5 15.125C19.8315 15.125 20.1495 15.2402 20.3839 15.4454C20.6183 15.6505 20.75 15.9287 20.75 16.2188V31.5313C20.75 31.8213 20.6183 32.0995 20.3839 32.3047C20.1495 32.5098 19.8315 32.625 19.5 32.625C19.1685 32.625 18.8505 32.5098 18.6161 32.3047C18.3817 32.0995 18.25 31.8213 18.25 31.5313V16.2188ZM10.75 16.2188C10.75 15.9287 10.8817 15.6505 11.1161 15.4454C11.3505 15.2402 11.6685 15.125 12 15.125C12.3315 15.125 12.6495 15.2402 12.8839 15.4454C13.1183 15.6505 13.25 15.9287 13.25 16.2188V31.5313C13.25 31.8213 13.1183 32.0995 12.8839 32.3047C12.6495 32.5098 12.3315 32.625 12 32.625C11.6685 32.625 11.3505 32.5098 11.1161 32.3047C10.8817 32.0995 10.75 31.8213 10.75 31.5313V16.2188ZM35.75 4.18751H26.375L25.6406 2.90919C25.4851 2.6359 25.2454 2.40601 24.9487 2.24539C24.6519 2.08477 24.3099 1.99979 23.9609 2.00001H15.0312C14.6831 1.99884 14.3416 2.0835 14.0459 2.2443C13.7503 2.4051 13.5123 2.63553 13.3594 2.90919L12.625 4.18751H3.25C2.91848 4.18751 2.60054 4.30275 2.36612 4.50786C2.1317 4.71298 2 4.99118 2 5.28126L2 7.46876C2 7.75884 2.1317 8.03704 2.36612 8.24216C2.60054 8.44728 2.91848 8.56251 3.25 8.56251H35.75C36.0815 8.56251 36.3995 8.44728 36.6339 8.24216C36.8683 8.03704 37 7.75884 37 7.46876V5.28126C37 4.99118 36.8683 4.71298 36.6339 4.50786C36.3995 4.30275 36.0815 4.18751 35.75 4.18751Z" fill="#FFE9E9"/>
</svg>
