<svg width="474" height="95" viewBox="0 0 474 95" fill="none" xmlns="http://www.w3.org/2000/svg">
<path d="M170.05 34.625C165.614 34.625 162.108 36.729 160.248 41.0095V35.3505H153.665V65.5315H160.248V49.9332C160.248 44.2743 163.467 40.5016 168.547 40.5016C172.34 40.5016 174.629 43.4762 174.629 48.2645V65.5315H181.212V47.3939C181.14 39.7761 177.276 34.625 170.05 34.625ZM236.447 39.7036C241.241 39.7036 243.96 42.9684 244.032 47.539H228.362C229.149 42.7507 231.94 39.7036 236.447 39.7036ZM250.471 51.8195V50.7312C250.471 41.3722 245.534 34.6976 236.447 34.6976C227.504 34.6976 221.637 41.2271 221.637 50.6587C221.637 59.8001 227.218 66.3296 236.447 66.3296C243.388 66.3296 248.539 62.6295 250.256 55.8823H243.459C242.243 59.5824 239.309 61.0334 236.304 61.0334C231.797 61.0334 228.577 57.4784 228.219 52.1097V51.8921H250.471V51.8195ZM270.505 47.6116C265.926 46.5233 263.564 46.0155 263.564 43.3311C263.564 41.2271 265.711 39.5585 269.002 39.5585C272.937 39.5585 275.012 41.4448 275.585 44.9272H281.595C280.879 38.1075 276.515 34.5525 269.074 34.5525C262.42 34.5525 257.34 37.2369 257.34 43.6213C257.34 50.2234 262.42 51.2391 268.573 52.6901C273.724 53.9235 275.656 54.2862 275.656 56.9706C275.656 60.0177 273.152 61.1785 269.861 61.1785C265.496 61.1785 262.921 58.7118 262.563 54.7941H256.41C256.839 62.0491 261.776 66.257 269.861 66.257C277.159 66.257 281.953 63.1374 281.953 56.7529C282.024 50.0057 276.873 49.1351 270.505 47.6116ZM310 40.7193V35.3505H298.981V26.0641H292.399V30.1269C292.399 33.9721 290.896 35.4231 286.675 35.4231H286.603V40.7918H292.399V55.5921C292.399 61.9766 296.835 66.112 303.703 66.112C305.635 66.112 307.71 65.7492 309.356 64.8786V59.1471C307.352 60.1628 305.707 60.3805 304.347 60.3805C300.913 60.3805 298.981 58.4941 298.981 55.0117V40.7918H310V40.7193ZM27.8106 39.7761C32.6044 39.7761 35.3233 43.0409 35.3948 47.6116H19.7256C20.5126 42.7507 23.303 39.7761 27.8106 39.7761ZM41.8342 51.8195V50.7312C41.8342 41.3722 36.8974 34.6976 27.8106 34.6976C18.867 34.6976 13 41.2271 13 50.6587C13 59.8001 18.5808 66.3296 27.8106 66.3296C34.7509 66.3296 39.9024 62.6295 41.6196 55.8823H34.8224C33.6061 59.5824 30.6726 61.0334 27.6675 61.0334C23.16 61.0334 19.9402 57.4784 19.5825 52.1097V51.8921C19.5825 51.8195 41.8342 51.8195 41.8342 51.8195ZM71.0262 50.6587C71.0262 56.6804 67.5203 60.6707 62.1541 60.6707C56.9311 60.6707 53.4967 56.5353 53.4967 50.3685C53.4967 44.3468 57.0026 40.284 62.1541 40.284C67.4488 40.284 70.9547 44.3468 71.0262 50.2234V50.6587ZM70.74 35.3505V39.9938H70.6685C69.1659 36.729 65.4454 34.6976 61.0809 34.6976C52.495 34.6976 47.0573 41.1546 47.0573 50.2959C47.0573 59.5824 52.5666 66.112 61.0809 66.112C65.3023 66.112 69.0228 63.9354 70.6685 60.3805H70.74V65.5315H77.3225V35.3505H70.74ZM98.6441 47.6116C94.065 46.5233 91.7039 46.0155 91.7039 43.3311C91.7039 41.2271 93.8503 39.5585 97.1416 39.5585C101.005 39.5585 103.152 41.4448 103.724 44.9272H109.734C109.019 38.1075 104.654 34.5525 97.2131 34.5525C90.5591 34.5525 85.4791 37.2369 85.4791 43.6213C85.4791 50.2234 90.5591 51.2391 96.7123 52.6901C101.864 53.9235 103.796 54.2862 103.796 56.9706C103.796 60.0177 101.291 61.1785 98.0002 61.1785C93.6357 61.1785 91.0599 58.7118 90.7022 54.7941H84.549C84.9783 62.0491 89.9151 66.257 98.0002 66.257C105.298 66.257 110.092 63.1374 110.092 56.7529C110.163 50.0783 105.012 49.1351 98.6441 47.6116ZM205.753 65.5315C207.47 62.4844 210.833 57.0431 213.051 51.8921C215.913 45.2174 218.846 36.8741 219.347 35.3505H212.192C210.69 41.2997 205.896 54.1411 202.533 59.3648C199.17 54.1411 194.377 41.2997 192.874 35.3505H185.719C186.22 36.8741 189.154 45.2174 192.016 51.8921C194.234 57.0431 197.596 62.4844 199.313 65.5315H205.753ZM147.083 35.3505C146.439 38.6153 141.717 67.5629 122.899 79.2436L122.685 79.0259C121.325 77.4298 119.894 75.8337 118.463 74.2376C121.969 72.3513 125.618 69.3767 128.194 65.9668C126.047 63.1374 121.683 55.7372 119.608 50.8764C116.531 43.4762 114.528 36.4388 114.528 35.3505H121.683C122.112 39.9212 126.334 51.4568 131.986 59.9452C136.78 51.4568 139.642 39.4859 140.071 35.3505H147.083Z" fill="#4E0250"/>
<path d="M358.323 26.688C348.215 27.2522 338.188 28.1925 328.401 29.4462C328.16 29.4462 328 29.6343 328 29.8224V29.8851C332.492 37.6583 337.546 45.3062 343.001 52.7033C348.456 60.1004 354.392 67.3094 360.81 74.2678C360.97 74.4558 361.211 74.4558 361.452 74.3304L361.532 74.2678C364.5 71.5095 367.388 68.6886 370.276 65.8676C365.383 53.0167 361.372 39.915 358.323 26.688Z" fill="#E6268C"/>
<path d="M456.834 27.1268C423.944 17.7864 389.85 11.3296 355.115 7.75641C354.874 7.75641 354.634 7.88178 354.634 8.06985V8.13254C355.677 14.2759 356.88 20.482 358.324 26.688C359.287 26.6253 360.249 26.5626 361.292 26.5C375.01 25.8104 388.647 25.8104 402.044 26.3746C402.284 26.3746 402.445 26.5626 402.445 26.7507C402.445 26.8134 402.445 26.8761 402.364 26.8761C393.139 40.6046 382.47 53.6436 370.277 65.9303C371.961 70.3185 373.726 74.7066 375.571 79.032C375.651 79.2201 375.892 79.3454 376.133 79.2828C376.133 79.2828 376.213 79.2828 376.213 79.2201C405.493 64.4259 432.607 47.1241 456.994 27.691C457.155 27.5656 457.155 27.3149 456.994 27.1895C456.994 27.1895 456.914 27.1268 456.834 27.1268Z" fill="#FFBB00"/>
<path d="M402.284 26.8761C402.364 26.688 402.283 26.5 402.123 26.3746C402.043 26.3746 401.963 26.3119 401.963 26.3119C388.406 25.7477 374.768 25.7477 361.211 26.4373C360.248 26.5 359.286 26.5627 358.243 26.6253C361.291 39.8524 365.302 52.9541 370.196 65.8677C374.126 61.9184 377.817 57.9064 381.426 53.8317C389.127 45.2435 396.107 36.2165 402.284 26.8761Z" fill="#E6268C"/>
<path d="M402.284 26.8761C402.364 26.688 402.283 26.5 402.123 26.3746C402.043 26.3746 401.963 26.3119 401.963 26.3119C388.406 25.7477 374.768 25.7477 361.211 26.4373C360.248 26.5 359.286 26.5627 358.243 26.6253C361.291 39.8524 365.302 52.9541 370.196 65.8677C374.126 61.9184 377.817 57.9064 381.426 53.8317C389.127 45.2435 396.107 36.2165 402.284 26.8761Z" fill="#4E0250"/>
</svg>
