<svg width="450" height="336" viewBox="0 0 450 336" fill="none" xmlns="http://www.w3.org/2000/svg">
<path d="M105.685 88.9122C70.4566 91.5619 35.5079 95.978 1.39795 101.866C0.559179 101.866 0 102.749 0 103.633V103.927C15.657 140.434 33.2712 176.352 52.2833 211.093C71.2954 245.833 91.9849 279.691 114.352 312.37C114.911 313.254 115.75 313.254 116.589 312.665L116.868 312.37C127.213 299.416 137.279 286.168 147.344 272.919C130.289 212.565 116.309 151.033 105.685 88.9122Z" fill="#E6268C"/>
<path d="M449.021 90.9732C334.39 47.1059 215.565 16.7815 94.5035 0C93.6647 0 92.8259 0.588823 92.8259 1.47206V1.76649C96.4606 30.6188 100.654 59.7655 105.687 88.9122C109.042 88.6178 112.397 88.3235 116.032 88.029C163.841 84.7905 211.371 84.7905 258.062 87.4402C258.901 87.4402 259.46 88.3234 259.46 89.2067C259.46 89.5011 259.46 89.7955 259.181 89.7955C227.028 154.272 189.843 215.509 147.346 273.214C153.217 293.823 159.368 314.431 165.798 334.746C166.078 335.629 166.917 336.218 167.755 335.923C167.755 335.923 168.035 335.923 168.035 335.629C270.085 266.148 364.586 184.89 449.58 93.6228C450.139 93.034 450.139 91.8564 449.58 91.2676C449.58 91.2676 449.301 90.9732 449.021 90.9732Z" fill="#FFBB00"/>
<path d="M258.899 89.7956C259.178 88.9123 258.899 88.029 258.34 87.4402C258.06 87.4402 257.781 87.1458 257.781 87.1458C210.53 84.4961 163 84.4961 115.75 87.7347C112.395 88.0291 109.04 88.3234 105.405 88.6179C116.029 150.739 130.009 212.271 147.064 272.919C160.763 254.372 173.624 235.529 186.206 216.393C213.046 176.058 237.371 133.663 258.899 89.7956Z" fill="#E6268C"/>
<path d="M258.899 89.7956C259.178 88.9123 258.899 88.029 258.34 87.4402C258.06 87.4402 257.781 87.1458 257.781 87.1458C210.53 84.4961 163 84.4961 115.75 87.7347C112.395 88.0291 109.04 88.3234 105.405 88.6179C116.029 150.739 130.009 212.271 147.064 272.919C160.763 254.372 173.624 235.529 186.206 216.393C213.046 176.058 237.371 133.663 258.899 89.7956Z" fill="#4E0250"/>
</svg>
